<mxfile host="app.diagrams.net" modified="2023-01-25T03:50:34.632Z" agent="5.0 (Windows NT 10.0; Win64; x64) AppleWebKit/537.36 (KHTML, like Gecko) Chrome/109.0.0.0 Safari/537.36" etag="MLFq5A4a4kaiQxILN8JT" version="20.8.11" type="github">
  <diagram id="kgpKYQtTHZ0yAKxKKP6v" name="Page-1">
    <mxGraphModel dx="440" dy="264" grid="1" gridSize="10" guides="1" tooltips="1" connect="1" arrows="1" fold="1" page="1" pageScale="1" pageWidth="850" pageHeight="1100" math="0" shadow="0">
      <root>
        <mxCell id="0" />
        <mxCell id="1" parent="0" />
        <mxCell id="3nuBFxr9cyL0pnOWT2aG-1" value=":MobonSDK" style="shape=umlLifeline;perimeter=lifelinePerimeter;container=1;collapsible=0;recursiveResize=0;rounded=0;shadow=0;strokeWidth=1;" parent="1" vertex="1">
          <mxGeometry x="208" y="80" width="100" height="300" as="geometry" />
        </mxCell>
        <mxCell id="3nuBFxr9cyL0pnOWT2aG-2" value="" style="points=[];perimeter=orthogonalPerimeter;rounded=0;shadow=0;strokeWidth=1;" parent="3nuBFxr9cyL0pnOWT2aG-1" vertex="1">
          <mxGeometry x="45" y="70" width="10" height="190" as="geometry" />
        </mxCell>
        <mxCell id="3nuBFxr9cyL0pnOWT2aG-3" value="new MobonSDK(Context, 매체코드)" style="verticalAlign=bottom;startArrow=oval;endArrow=block;startSize=8;shadow=0;strokeWidth=1;" parent="3nuBFxr9cyL0pnOWT2aG-1" target="3nuBFxr9cyL0pnOWT2aG-2" edge="1">
          <mxGeometry relative="1" as="geometry">
            <mxPoint x="-148" y="70" as="sourcePoint" />
            <mxPoint as="offset" />
          </mxGeometry>
        </mxCell>
        <mxCell id="IYrt6UP6kHgArhikihXP-8" value="" style="points=[];perimeter=orthogonalPerimeter;rounded=0;shadow=0;strokeWidth=1;" vertex="1" parent="3nuBFxr9cyL0pnOWT2aG-1">
          <mxGeometry x="55" y="180" width="8" height="40" as="geometry" />
        </mxCell>
        <mxCell id="IYrt6UP6kHgArhikihXP-10" value="onConnectSDKUrlAPI" style="endArrow=classic;html=1;rounded=0;exitX=0.999;exitY=0.544;exitDx=0;exitDy=0;exitPerimeter=0;entryX=0.933;entryY=0.008;entryDx=0;entryDy=0;entryPerimeter=0;" edge="1" parent="3nuBFxr9cyL0pnOWT2aG-1" source="3nuBFxr9cyL0pnOWT2aG-2" target="IYrt6UP6kHgArhikihXP-8">
          <mxGeometry x="0.0051" y="20" width="50" height="50" relative="1" as="geometry">
            <mxPoint x="92" y="180" as="sourcePoint" />
            <mxPoint x="102" y="190" as="targetPoint" />
            <Array as="points">
              <mxPoint x="102" y="173" />
              <mxPoint x="102" y="180" />
            </Array>
            <mxPoint y="-3" as="offset" />
          </mxGeometry>
        </mxCell>
        <mxCell id="3nuBFxr9cyL0pnOWT2aG-5" value=":SharedPreference" style="shape=umlLifeline;perimeter=lifelinePerimeter;container=1;collapsible=0;recursiveResize=0;rounded=0;shadow=0;strokeWidth=1;" parent="1" vertex="1">
          <mxGeometry x="330" y="80" width="122" height="300" as="geometry" />
        </mxCell>
        <mxCell id="3nuBFxr9cyL0pnOWT2aG-6" value="" style="points=[];perimeter=orthogonalPerimeter;rounded=0;shadow=0;strokeWidth=1;" parent="3nuBFxr9cyL0pnOWT2aG-5" vertex="1">
          <mxGeometry x="56" y="80" width="10" height="20" as="geometry" />
        </mxCell>
        <mxCell id="3nuBFxr9cyL0pnOWT2aG-8" value="매체코드 저장" style="verticalAlign=bottom;endArrow=block;entryX=0;entryY=0;shadow=0;strokeWidth=1;" parent="1" source="3nuBFxr9cyL0pnOWT2aG-2" target="3nuBFxr9cyL0pnOWT2aG-6" edge="1">
          <mxGeometry relative="1" as="geometry">
            <mxPoint x="363" y="160" as="sourcePoint" />
            <mxPoint as="offset" />
          </mxGeometry>
        </mxCell>
        <mxCell id="3nuBFxr9cyL0pnOWT2aG-9" value="callback" style="verticalAlign=bottom;endArrow=block;shadow=0;strokeWidth=1;entryX=1.084;entryY=0.154;entryDx=0;entryDy=0;entryPerimeter=0;exitX=-0.008;exitY=0.988;exitDx=0;exitDy=0;exitPerimeter=0;" parent="1" source="3nuBFxr9cyL0pnOWT2aG-6" target="3nuBFxr9cyL0pnOWT2aG-2" edge="1">
          <mxGeometry relative="1" as="geometry">
            <mxPoint x="328" y="200" as="sourcePoint" />
            <mxPoint x="270" y="200" as="targetPoint" />
          </mxGeometry>
        </mxCell>
        <mxCell id="IYrt6UP6kHgArhikihXP-2" value=":IntegrationHelper" style="shape=umlLifeline;perimeter=lifelinePerimeter;container=1;collapsible=0;recursiveResize=0;rounded=0;shadow=0;strokeWidth=1;" vertex="1" parent="1">
          <mxGeometry x="470" y="80" width="122" height="300" as="geometry" />
        </mxCell>
        <mxCell id="IYrt6UP6kHgArhikihXP-3" value="" style="points=[];perimeter=orthogonalPerimeter;rounded=0;shadow=0;strokeWidth=1;" vertex="1" parent="IYrt6UP6kHgArhikihXP-2">
          <mxGeometry x="56" y="120" width="10" height="40" as="geometry" />
        </mxCell>
        <mxCell id="IYrt6UP6kHgArhikihXP-4" value="validateIntegration" style="verticalAlign=bottom;endArrow=block;entryX=-0.008;entryY=0.015;shadow=0;strokeWidth=1;exitX=1.125;exitY=0.271;exitDx=0;exitDy=0;exitPerimeter=0;entryDx=0;entryDy=0;entryPerimeter=0;" edge="1" parent="1" source="3nuBFxr9cyL0pnOWT2aG-2" target="IYrt6UP6kHgArhikihXP-3">
          <mxGeometry relative="1" as="geometry">
            <mxPoint x="273" y="170" as="sourcePoint" />
            <mxPoint x="396" y="170" as="targetPoint" />
            <mxPoint as="offset" />
          </mxGeometry>
        </mxCell>
        <mxCell id="IYrt6UP6kHgArhikihXP-6" value="&lt;h1&gt;Adapter 목록 검증&lt;/h1&gt;&lt;p&gt;appbacon,&amp;nbsp;&lt;span style=&quot;background-color: initial;&quot;&gt;mbadapter,&amp;nbsp;&lt;/span&gt;&lt;span style=&quot;background-color: initial;&quot;&gt;mbmixadapter&lt;/span&gt;&lt;/p&gt;" style="text;html=1;strokeColor=none;fillColor=none;spacing=5;spacingTop=-20;whiteSpace=wrap;overflow=hidden;rounded=0;" vertex="1" parent="1">
          <mxGeometry x="550" y="180" width="230" height="80" as="geometry" />
        </mxCell>
        <mxCell id="IYrt6UP6kHgArhikihXP-7" value="callback" style="verticalAlign=bottom;endArrow=block;shadow=0;strokeWidth=1;entryX=0.9;entryY=0.474;entryDx=0;entryDy=0;entryPerimeter=0;exitX=-0.185;exitY=0.986;exitDx=0;exitDy=0;exitPerimeter=0;" edge="1" parent="1" source="IYrt6UP6kHgArhikihXP-3" target="3nuBFxr9cyL0pnOWT2aG-2">
          <mxGeometry relative="1" as="geometry">
            <mxPoint x="502.08000000000004" y="240.5" as="sourcePoint" />
            <mxPoint x="379.9999999999999" y="240" as="targetPoint" />
          </mxGeometry>
        </mxCell>
      </root>
    </mxGraphModel>
  </diagram>
</mxfile>
